<svg xmlns="http://www.w3.org/2000/svg" viewBox="0 0 760 950" width="760" height="950" role="img" aria-label="INTERIOR placeholder">
<defs>
<radialGradient id="v" cx="50%" cy="38%" r="78%">
  <stop offset="0%" stop-color="#301019"/><stop offset="55%" stop-color="#1d0b11"/><stop offset="100%" stop-color="#120709"/>
</radialGradient>
</defs>
<rect width="760" height="950" fill="url(#v)"/>
<g><path d="M-2298.4 990.0 L-1308.4 -40.0" stroke="rgba(226,205,160,.085)" stroke-width="1"/><path d="M-2298.4 -40.0 L-1308.4 990.0" stroke="rgba(226,205,160,.085)" stroke-width="1"/><path d="M-2145.2 990.0 L-1155.2 -40.0" stroke="rgba(226,205,160,.085)" stroke-width="1"/><path d="M-2145.2 -40.0 L-1155.2 990.0" stroke="rgba(226,205,160,.085)" stroke-width="1"/><path d="M-1991.9 990.0 L-1001.9 -40.0" stroke="rgba(226,205,160,.085)" stroke-width="1"/><path d="M-1991.9 -40.0 L-1001.9 990.0" stroke="rgba(226,205,160,.085)" stroke-width="1"/><path d="M-1838.7 990.0 L-848.7 -40.0" stroke="rgba(226,205,160,.085)" stroke-width="1"/><path d="M-1838.7 -40.0 L-848.7 990.0" stroke="rgba(226,205,160,.085)" stroke-width="1"/><path d="M-1685.5 990.0 L-695.5 -40.0" stroke="rgba(226,205,160,.085)" stroke-width="1"/><path d="M-1685.5 -40.0 L-695.5 990.0" stroke="rgba(226,205,160,.085)" stroke-width="1"/><path d="M-1532.3 990.0 L-542.3 -40.0" stroke="rgba(226,205,160,.085)" stroke-width="1"/><path d="M-1532.3 -40.0 L-542.3 990.0" stroke="rgba(226,205,160,.085)" stroke-width="1"/><path d="M-1379.0 990.0 L-389.0 -40.0" stroke="rgba(226,205,160,.085)" stroke-width="1"/><path d="M-1379.0 -40.0 L-389.0 990.0" stroke="rgba(226,205,160,.085)" stroke-width="1"/><path d="M-1225.8 990.0 L-235.8 -40.0" stroke="rgba(226,205,160,.085)" stroke-width="1"/><path d="M-1225.8 -40.0 L-235.8 990.0" stroke="rgba(226,205,160,.085)" stroke-width="1"/><path d="M-1072.6 990.0 L-82.6 -40.0" stroke="rgba(226,205,160,.085)" stroke-width="1"/><path d="M-1072.6 -40.0 L-82.6 990.0" stroke="rgba(226,205,160,.085)" stroke-width="1"/><path d="M-919.4 990.0 L70.6 -40.0" stroke="rgba(226,205,160,.085)" stroke-width="1"/><path d="M-919.4 -40.0 L70.6 990.0" stroke="rgba(226,205,160,.085)" stroke-width="1"/><path d="M-766.1 990.0 L223.9 -40.0" stroke="rgba(226,205,160,.085)" stroke-width="1"/><path d="M-766.1 -40.0 L223.9 990.0" stroke="rgba(226,205,160,.085)" stroke-width="1"/><path d="M-612.9 990.0 L377.1 -40.0" stroke="rgba(226,205,160,.085)" stroke-width="1"/><path d="M-612.9 -40.0 L377.1 990.0" stroke="rgba(226,205,160,.085)" stroke-width="1"/><path d="M-459.7 990.0 L530.3 -40.0" stroke="rgba(226,205,160,.085)" stroke-width="1"/><path d="M-459.7 -40.0 L530.3 990.0" stroke="rgba(226,205,160,.085)" stroke-width="1"/><path d="M-306.5 990.0 L683.5 -40.0" stroke="rgba(226,205,160,.085)" stroke-width="1"/><path d="M-306.5 -40.0 L683.5 990.0" stroke="rgba(226,205,160,.085)" stroke-width="1"/><path d="M-153.2 990.0 L836.8 -40.0" stroke="rgba(226,205,160,.085)" stroke-width="1"/><path d="M-153.2 -40.0 L836.8 990.0" stroke="rgba(226,205,160,.085)" stroke-width="1"/><path d="M0.0 990.0 L990.0 -40.0" stroke="rgba(226,205,160,.085)" stroke-width="1"/><path d="M0.0 -40.0 L990.0 990.0" stroke="rgba(226,205,160,.085)" stroke-width="1"/><path d="M153.2 990.0 L1143.2 -40.0" stroke="rgba(226,205,160,.085)" stroke-width="1"/><path d="M153.2 -40.0 L1143.2 990.0" stroke="rgba(226,205,160,.085)" stroke-width="1"/><path d="M306.5 990.0 L1296.5 -40.0" stroke="rgba(226,205,160,.085)" stroke-width="1"/><path d="M306.5 -40.0 L1296.5 990.0" stroke="rgba(226,205,160,.085)" stroke-width="1"/><path d="M459.7 990.0 L1449.7 -40.0" stroke="rgba(226,205,160,.085)" stroke-width="1"/><path d="M459.7 -40.0 L1449.7 990.0" stroke="rgba(226,205,160,.085)" stroke-width="1"/><path d="M612.9 990.0 L1602.9 -40.0" stroke="rgba(226,205,160,.085)" stroke-width="1"/><path d="M612.9 -40.0 L1602.9 990.0" stroke="rgba(226,205,160,.085)" stroke-width="1"/><path d="M766.1 990.0 L1756.1 -40.0" stroke="rgba(226,205,160,.085)" stroke-width="1"/><path d="M766.1 -40.0 L1756.1 990.0" stroke="rgba(226,205,160,.085)" stroke-width="1"/><path d="M919.4 990.0 L1909.4 -40.0" stroke="rgba(226,205,160,.085)" stroke-width="1"/><path d="M919.4 -40.0 L1909.4 990.0" stroke="rgba(226,205,160,.085)" stroke-width="1"/><path d="M1072.6 990.0 L2062.6 -40.0" stroke="rgba(226,205,160,.085)" stroke-width="1"/><path d="M1072.6 -40.0 L2062.6 990.0" stroke="rgba(226,205,160,.085)" stroke-width="1"/><path d="M1225.8 990.0 L2215.8 -40.0" stroke="rgba(226,205,160,.085)" stroke-width="1"/><path d="M1225.8 -40.0 L2215.8 990.0" stroke="rgba(226,205,160,.085)" stroke-width="1"/><path d="M1379.0 990.0 L2369.0 -40.0" stroke="rgba(226,205,160,.085)" stroke-width="1"/><path d="M1379.0 -40.0 L2369.0 990.0" stroke="rgba(226,205,160,.085)" stroke-width="1"/><path d="M1532.3 990.0 L2522.3 -40.0" stroke="rgba(226,205,160,.085)" stroke-width="1"/><path d="M1532.3 -40.0 L2522.3 990.0" stroke="rgba(226,205,160,.085)" stroke-width="1"/><path d="M1685.5 990.0 L2675.5 -40.0" stroke="rgba(226,205,160,.085)" stroke-width="1"/><path d="M1685.5 -40.0 L2675.5 990.0" stroke="rgba(226,205,160,.085)" stroke-width="1"/><path d="M1838.7 990.0 L2828.7 -40.0" stroke="rgba(226,205,160,.085)" stroke-width="1"/><path d="M1838.7 -40.0 L2828.7 990.0" stroke="rgba(226,205,160,.085)" stroke-width="1"/><path d="M1991.9 990.0 L2981.9 -40.0" stroke="rgba(226,205,160,.085)" stroke-width="1"/><path d="M1991.9 -40.0 L2981.9 990.0" stroke="rgba(226,205,160,.085)" stroke-width="1"/><path d="M2145.2 990.0 L3135.2 -40.0" stroke="rgba(226,205,160,.085)" stroke-width="1"/><path d="M2145.2 -40.0 L3135.2 990.0" stroke="rgba(226,205,160,.085)" stroke-width="1"/></g>
<g><circle cx="0.0" cy="0.0" r="1.9" fill="#c9a227" opacity=".34"/><circle cx="153.2" cy="0.0" r="1.9" fill="#c9a227" opacity=".34"/><circle cx="306.5" cy="0.0" r="1.9" fill="#c9a227" opacity=".34"/><circle cx="459.7" cy="0.0" r="1.9" fill="#c9a227" opacity=".34"/><circle cx="612.9" cy="0.0" r="1.9" fill="#c9a227" opacity=".34"/><circle cx="766.1" cy="0.0" r="1.9" fill="#c9a227" opacity=".34"/><circle cx="76.6" cy="153.2" r="1.9" fill="#c9a227" opacity=".34"/><circle cx="229.8" cy="153.2" r="1.9" fill="#c9a227" opacity=".34"/><circle cx="383.1" cy="153.2" r="1.9" fill="#c9a227" opacity=".34"/><circle cx="536.3" cy="153.2" r="1.9" fill="#c9a227" opacity=".34"/><circle cx="689.5" cy="153.2" r="1.9" fill="#c9a227" opacity=".34"/><circle cx="842.7" cy="153.2" r="1.9" fill="#c9a227" opacity=".34"/><circle cx="0.0" cy="306.5" r="1.9" fill="#c9a227" opacity=".34"/><circle cx="153.2" cy="306.5" r="1.9" fill="#c9a227" opacity=".34"/><circle cx="306.5" cy="306.5" r="1.9" fill="#c9a227" opacity=".34"/><circle cx="459.7" cy="306.5" r="1.9" fill="#c9a227" opacity=".34"/><circle cx="612.9" cy="306.5" r="1.9" fill="#c9a227" opacity=".34"/><circle cx="766.1" cy="306.5" r="1.9" fill="#c9a227" opacity=".34"/><circle cx="76.6" cy="459.7" r="1.9" fill="#c9a227" opacity=".34"/><circle cx="229.8" cy="459.7" r="1.9" fill="#c9a227" opacity=".34"/><circle cx="383.1" cy="459.7" r="1.9" fill="#c9a227" opacity=".34"/><circle cx="536.3" cy="459.7" r="1.9" fill="#c9a227" opacity=".34"/><circle cx="689.5" cy="459.7" r="1.9" fill="#c9a227" opacity=".34"/><circle cx="842.7" cy="459.7" r="1.9" fill="#c9a227" opacity=".34"/><circle cx="0.0" cy="612.9" r="1.9" fill="#c9a227" opacity=".34"/><circle cx="153.2" cy="612.9" r="1.9" fill="#c9a227" opacity=".34"/><circle cx="306.5" cy="612.9" r="1.9" fill="#c9a227" opacity=".34"/><circle cx="459.7" cy="612.9" r="1.9" fill="#c9a227" opacity=".34"/><circle cx="612.9" cy="612.9" r="1.9" fill="#c9a227" opacity=".34"/><circle cx="766.1" cy="612.9" r="1.9" fill="#c9a227" opacity=".34"/><circle cx="76.6" cy="766.1" r="1.9" fill="#c9a227" opacity=".34"/><circle cx="229.8" cy="766.1" r="1.9" fill="#c9a227" opacity=".34"/><circle cx="383.1" cy="766.1" r="1.9" fill="#c9a227" opacity=".34"/><circle cx="536.3" cy="766.1" r="1.9" fill="#c9a227" opacity=".34"/><circle cx="689.5" cy="766.1" r="1.9" fill="#c9a227" opacity=".34"/><circle cx="842.7" cy="766.1" r="1.9" fill="#c9a227" opacity=".34"/><circle cx="0.0" cy="919.4" r="1.9" fill="#c9a227" opacity=".34"/><circle cx="153.2" cy="919.4" r="1.9" fill="#c9a227" opacity=".34"/><circle cx="306.5" cy="919.4" r="1.9" fill="#c9a227" opacity=".34"/><circle cx="459.7" cy="919.4" r="1.9" fill="#c9a227" opacity=".34"/><circle cx="612.9" cy="919.4" r="1.9" fill="#c9a227" opacity=".34"/><circle cx="766.1" cy="919.4" r="1.9" fill="#c9a227" opacity=".34"/><circle cx="76.6" cy="1072.6" r="1.9" fill="#c9a227" opacity=".34"/><circle cx="229.8" cy="1072.6" r="1.9" fill="#c9a227" opacity=".34"/><circle cx="383.1" cy="1072.6" r="1.9" fill="#c9a227" opacity=".34"/><circle cx="536.3" cy="1072.6" r="1.9" fill="#c9a227" opacity=".34"/><circle cx="689.5" cy="1072.6" r="1.9" fill="#c9a227" opacity=".34"/><circle cx="842.7" cy="1072.6" r="1.9" fill="#c9a227" opacity=".34"/></g>
<rect x="10.5" y="10.5" width="739" height="929" fill="none" stroke="rgba(201,162,39,.30)" stroke-width="1"/>
<g transform="translate(250.8,320.0) scale(2.5840)" opacity=".85"><path d="M28 82 V44 Q50 20 72 44 V82" fill="none" stroke="#c9a227" stroke-width="2.2" stroke-linejoin="round"/><path d="M50 82 V34" stroke="#c9a227" stroke-width="1.1" opacity=".7"/></g>
<text x="380" y="658" text-anchor="middle" font-family="Jost, Futura, system-ui, sans-serif"
 font-size="39.5" letter-spacing="10.28" fill="#8a7c68">INTERIOR</text>
</svg>