<svg xmlns="http://www.w3.org/2000/svg" viewBox="0 0 600 880" width="600" height="880" role="img" aria-label="PORTRAIT placeholder">
<defs>
<radialGradient id="v" cx="50%" cy="38%" r="78%">
  <stop offset="0%" stop-color="#301019"/><stop offset="55%" stop-color="#1d0b11"/><stop offset="100%" stop-color="#120709"/>
</radialGradient>
</defs>
<rect width="600" height="880" fill="url(#v)"/>
<g><path d="M-1987.1 920.0 L-1067.1 -40.0" stroke="rgba(226,205,160,.085)" stroke-width="1"/><path d="M-1987.1 -40.0 L-1067.1 920.0" stroke="rgba(226,205,160,.085)" stroke-width="1"/><path d="M-1845.2 920.0 L-925.2 -40.0" stroke="rgba(226,205,160,.085)" stroke-width="1"/><path d="M-1845.2 -40.0 L-925.2 920.0" stroke="rgba(226,205,160,.085)" stroke-width="1"/><path d="M-1703.2 920.0 L-783.2 -40.0" stroke="rgba(226,205,160,.085)" stroke-width="1"/><path d="M-1703.2 -40.0 L-783.2 920.0" stroke="rgba(226,205,160,.085)" stroke-width="1"/><path d="M-1561.3 920.0 L-641.3 -40.0" stroke="rgba(226,205,160,.085)" stroke-width="1"/><path d="M-1561.3 -40.0 L-641.3 920.0" stroke="rgba(226,205,160,.085)" stroke-width="1"/><path d="M-1419.4 920.0 L-499.4 -40.0" stroke="rgba(226,205,160,.085)" stroke-width="1"/><path d="M-1419.4 -40.0 L-499.4 920.0" stroke="rgba(226,205,160,.085)" stroke-width="1"/><path d="M-1277.4 920.0 L-357.4 -40.0" stroke="rgba(226,205,160,.085)" stroke-width="1"/><path d="M-1277.4 -40.0 L-357.4 920.0" stroke="rgba(226,205,160,.085)" stroke-width="1"/><path d="M-1135.5 920.0 L-215.5 -40.0" stroke="rgba(226,205,160,.085)" stroke-width="1"/><path d="M-1135.5 -40.0 L-215.5 920.0" stroke="rgba(226,205,160,.085)" stroke-width="1"/><path d="M-993.5 920.0 L-73.5 -40.0" stroke="rgba(226,205,160,.085)" stroke-width="1"/><path d="M-993.5 -40.0 L-73.5 920.0" stroke="rgba(226,205,160,.085)" stroke-width="1"/><path d="M-851.6 920.0 L68.4 -40.0" stroke="rgba(226,205,160,.085)" stroke-width="1"/><path d="M-851.6 -40.0 L68.4 920.0" stroke="rgba(226,205,160,.085)" stroke-width="1"/><path d="M-709.7 920.0 L210.3 -40.0" stroke="rgba(226,205,160,.085)" stroke-width="1"/><path d="M-709.7 -40.0 L210.3 920.0" stroke="rgba(226,205,160,.085)" stroke-width="1"/><path d="M-567.7 920.0 L352.3 -40.0" stroke="rgba(226,205,160,.085)" stroke-width="1"/><path d="M-567.7 -40.0 L352.3 920.0" stroke="rgba(226,205,160,.085)" stroke-width="1"/><path d="M-425.8 920.0 L494.2 -40.0" stroke="rgba(226,205,160,.085)" stroke-width="1"/><path d="M-425.8 -40.0 L494.2 920.0" stroke="rgba(226,205,160,.085)" stroke-width="1"/><path d="M-283.9 920.0 L636.1 -40.0" stroke="rgba(226,205,160,.085)" stroke-width="1"/><path d="M-283.9 -40.0 L636.1 920.0" stroke="rgba(226,205,160,.085)" stroke-width="1"/><path d="M-141.9 920.0 L778.1 -40.0" stroke="rgba(226,205,160,.085)" stroke-width="1"/><path d="M-141.9 -40.0 L778.1 920.0" stroke="rgba(226,205,160,.085)" stroke-width="1"/><path d="M0.0 920.0 L920.0 -40.0" stroke="rgba(226,205,160,.085)" stroke-width="1"/><path d="M0.0 -40.0 L920.0 920.0" stroke="rgba(226,205,160,.085)" stroke-width="1"/><path d="M141.9 920.0 L1061.9 -40.0" stroke="rgba(226,205,160,.085)" stroke-width="1"/><path d="M141.9 -40.0 L1061.9 920.0" stroke="rgba(226,205,160,.085)" stroke-width="1"/><path d="M283.9 920.0 L1203.9 -40.0" stroke="rgba(226,205,160,.085)" stroke-width="1"/><path d="M283.9 -40.0 L1203.9 920.0" stroke="rgba(226,205,160,.085)" stroke-width="1"/><path d="M425.8 920.0 L1345.8 -40.0" stroke="rgba(226,205,160,.085)" stroke-width="1"/><path d="M425.8 -40.0 L1345.8 920.0" stroke="rgba(226,205,160,.085)" stroke-width="1"/><path d="M567.7 920.0 L1487.7 -40.0" stroke="rgba(226,205,160,.085)" stroke-width="1"/><path d="M567.7 -40.0 L1487.7 920.0" stroke="rgba(226,205,160,.085)" stroke-width="1"/><path d="M709.7 920.0 L1629.7 -40.0" stroke="rgba(226,205,160,.085)" stroke-width="1"/><path d="M709.7 -40.0 L1629.7 920.0" stroke="rgba(226,205,160,.085)" stroke-width="1"/><path d="M851.6 920.0 L1771.6 -40.0" stroke="rgba(226,205,160,.085)" stroke-width="1"/><path d="M851.6 -40.0 L1771.6 920.0" stroke="rgba(226,205,160,.085)" stroke-width="1"/><path d="M993.5 920.0 L1913.5 -40.0" stroke="rgba(226,205,160,.085)" stroke-width="1"/><path d="M993.5 -40.0 L1913.5 920.0" stroke="rgba(226,205,160,.085)" stroke-width="1"/><path d="M1135.5 920.0 L2055.5 -40.0" stroke="rgba(226,205,160,.085)" stroke-width="1"/><path d="M1135.5 -40.0 L2055.5 920.0" stroke="rgba(226,205,160,.085)" stroke-width="1"/><path d="M1277.4 920.0 L2197.4 -40.0" stroke="rgba(226,205,160,.085)" stroke-width="1"/><path d="M1277.4 -40.0 L2197.4 920.0" stroke="rgba(226,205,160,.085)" stroke-width="1"/><path d="M1419.4 920.0 L2339.4 -40.0" stroke="rgba(226,205,160,.085)" stroke-width="1"/><path d="M1419.4 -40.0 L2339.4 920.0" stroke="rgba(226,205,160,.085)" stroke-width="1"/><path d="M1561.3 920.0 L2481.3 -40.0" stroke="rgba(226,205,160,.085)" stroke-width="1"/><path d="M1561.3 -40.0 L2481.3 920.0" stroke="rgba(226,205,160,.085)" stroke-width="1"/><path d="M1703.2 920.0 L2623.2 -40.0" stroke="rgba(226,205,160,.085)" stroke-width="1"/><path d="M1703.2 -40.0 L2623.2 920.0" stroke="rgba(226,205,160,.085)" stroke-width="1"/><path d="M1845.2 920.0 L2765.2 -40.0" stroke="rgba(226,205,160,.085)" stroke-width="1"/><path d="M1845.2 -40.0 L2765.2 920.0" stroke="rgba(226,205,160,.085)" stroke-width="1"/></g>
<g><circle cx="0.0" cy="0.0" r="1.9" fill="#c9a227" opacity=".34"/><circle cx="141.9" cy="0.0" r="1.9" fill="#c9a227" opacity=".34"/><circle cx="283.9" cy="0.0" r="1.9" fill="#c9a227" opacity=".34"/><circle cx="425.8" cy="0.0" r="1.9" fill="#c9a227" opacity=".34"/><circle cx="567.7" cy="0.0" r="1.9" fill="#c9a227" opacity=".34"/><circle cx="709.7" cy="0.0" r="1.9" fill="#c9a227" opacity=".34"/><circle cx="71.0" cy="141.9" r="1.9" fill="#c9a227" opacity=".34"/><circle cx="212.9" cy="141.9" r="1.9" fill="#c9a227" opacity=".34"/><circle cx="354.8" cy="141.9" r="1.9" fill="#c9a227" opacity=".34"/><circle cx="496.8" cy="141.9" r="1.9" fill="#c9a227" opacity=".34"/><circle cx="638.7" cy="141.9" r="1.9" fill="#c9a227" opacity=".34"/><circle cx="0.0" cy="283.9" r="1.9" fill="#c9a227" opacity=".34"/><circle cx="141.9" cy="283.9" r="1.9" fill="#c9a227" opacity=".34"/><circle cx="283.9" cy="283.9" r="1.9" fill="#c9a227" opacity=".34"/><circle cx="425.8" cy="283.9" r="1.9" fill="#c9a227" opacity=".34"/><circle cx="567.7" cy="283.9" r="1.9" fill="#c9a227" opacity=".34"/><circle cx="709.7" cy="283.9" r="1.9" fill="#c9a227" opacity=".34"/><circle cx="71.0" cy="425.8" r="1.9" fill="#c9a227" opacity=".34"/><circle cx="212.9" cy="425.8" r="1.9" fill="#c9a227" opacity=".34"/><circle cx="354.8" cy="425.8" r="1.9" fill="#c9a227" opacity=".34"/><circle cx="496.8" cy="425.8" r="1.9" fill="#c9a227" opacity=".34"/><circle cx="638.7" cy="425.8" r="1.9" fill="#c9a227" opacity=".34"/><circle cx="0.0" cy="567.7" r="1.9" fill="#c9a227" opacity=".34"/><circle cx="141.9" cy="567.7" r="1.9" fill="#c9a227" opacity=".34"/><circle cx="283.9" cy="567.7" r="1.9" fill="#c9a227" opacity=".34"/><circle cx="425.8" cy="567.7" r="1.9" fill="#c9a227" opacity=".34"/><circle cx="567.7" cy="567.7" r="1.9" fill="#c9a227" opacity=".34"/><circle cx="709.7" cy="567.7" r="1.9" fill="#c9a227" opacity=".34"/><circle cx="71.0" cy="709.7" r="1.9" fill="#c9a227" opacity=".34"/><circle cx="212.9" cy="709.7" r="1.9" fill="#c9a227" opacity=".34"/><circle cx="354.8" cy="709.7" r="1.9" fill="#c9a227" opacity=".34"/><circle cx="496.8" cy="709.7" r="1.9" fill="#c9a227" opacity=".34"/><circle cx="638.7" cy="709.7" r="1.9" fill="#c9a227" opacity=".34"/><circle cx="0.0" cy="851.6" r="1.9" fill="#c9a227" opacity=".34"/><circle cx="141.9" cy="851.6" r="1.9" fill="#c9a227" opacity=".34"/><circle cx="283.9" cy="851.6" r="1.9" fill="#c9a227" opacity=".34"/><circle cx="425.8" cy="851.6" r="1.9" fill="#c9a227" opacity=".34"/><circle cx="567.7" cy="851.6" r="1.9" fill="#c9a227" opacity=".34"/><circle cx="709.7" cy="851.6" r="1.9" fill="#c9a227" opacity=".34"/><circle cx="71.0" cy="993.5" r="1.9" fill="#c9a227" opacity=".34"/><circle cx="212.9" cy="993.5" r="1.9" fill="#c9a227" opacity=".34"/><circle cx="354.8" cy="993.5" r="1.9" fill="#c9a227" opacity=".34"/><circle cx="496.8" cy="993.5" r="1.9" fill="#c9a227" opacity=".34"/><circle cx="638.7" cy="993.5" r="1.9" fill="#c9a227" opacity=".34"/></g>
<rect x="10.5" y="10.5" width="579" height="859" fill="none" stroke="rgba(201,162,39,.30)" stroke-width="1"/>
<g transform="translate(198.0,317.6) scale(2.0400)" opacity=".85"><circle cx="50" cy="41" r="11" fill="none" stroke="#c9a227" stroke-width="2.2"/><path d="M44 52 L38 76 Q50 82 62 76 L56 52 Z" fill="none" stroke="#c9a227" stroke-width="2.2" stroke-linejoin="round"/></g>
<text x="300" y="585" text-anchor="middle" font-family="Jost, Futura, system-ui, sans-serif"
 font-size="31.2" letter-spacing="8.11" fill="#8a7c68">PORTRAIT</text>
</svg>